<svg width="185" height="30" viewBox="0 0 185 30" fill="none" xmlns="http://www.w3.org/2000/svg">
<rect x="143" y="0.5" width="41.5" height="29" rx="3.5" fill="white" stroke="#B2BCCA"/>
<ellipse cx="158.476" cy="14.6625" rx="8.47586" ry="8.375" fill="#DADADA"/>
<ellipse cx="169.471" cy="14.6625" rx="8.47586" ry="8.375" fill="#F9A000"/>
<path d="M70.5 29L89.5 23.25V26C89.5 27.6569 88.1569 29 86.5 29H70.5Z" fill="#FD6020"/>
<path fill-rule="evenodd" clip-rule="evenodd" d="M86.2673 13.1347C86.2673 11.993 85.5487 11.3886 84.242 11.3886H82.6088V17.3657H83.7194V14.948H83.8501L85.3527 17.3657H86.7246L84.9607 14.8809C85.7447 14.7466 86.3326 14.0078 86.2673 13.1347Z" fill="#DADADA"/>
<path fill-rule="evenodd" clip-rule="evenodd" d="M84.0461 14.1421H83.7195V12.3288H84.0461C84.7648 12.3288 85.0914 12.6646 85.0914 13.2019C85.0914 13.8063 84.7648 14.1421 84.0461 14.1421Z" fill="#DADADA"/>
<path fill-rule="evenodd" clip-rule="evenodd" d="M78.7544 17.3657H81.8903V16.3584H79.865V14.7466H81.8249V13.7392H79.865V12.396H81.8903V11.3886H78.7544V17.3657Z" fill="black"/>
<path fill-rule="evenodd" clip-rule="evenodd" d="M75.4878 15.4181L73.9852 11.3886H72.8092L75.2265 17.5001H75.8144L78.2317 11.3886H77.0557L75.4878 15.4181Z" fill="black"/>
<path fill-rule="evenodd" clip-rule="evenodd" d="M62.2255 14.4106C62.2255 16.0896 63.5321 17.4999 65.1654 17.4999C65.688 17.4999 66.1453 17.3656 66.6026 17.1641V15.821C66.276 16.2239 65.8187 16.4926 65.296 16.4926C64.2507 16.4926 63.4014 15.6867 63.4014 14.6121V14.4778C63.3361 13.4033 64.1854 12.463 65.2307 12.3959C65.7533 12.3959 66.276 12.6645 66.6026 13.0675V11.7243C66.2106 11.4557 65.688 11.3885 65.2307 11.3885C63.5321 11.2542 62.2255 12.6645 62.2255 14.4106Z" fill="black"/>
<path fill-rule="evenodd" clip-rule="evenodd" d="M60.2003 13.672C59.5469 13.4033 59.351 13.269 59.351 12.9332C59.4163 12.5303 59.7429 12.1945 60.1349 12.2616C60.4616 12.2616 60.7882 12.4631 61.0496 12.7317L61.6375 11.9258C61.1802 11.5229 60.5922 11.2542 60.0043 11.2542C59.0896 11.1871 58.3057 11.9258 58.2403 12.8661V12.9332C58.2403 13.7391 58.567 14.2092 59.6123 14.545C59.8736 14.6122 60.1349 14.7465 60.3962 14.8808C60.5922 15.0151 60.7229 15.2166 60.7229 15.4852C60.7229 15.9554 60.3309 16.3583 59.9389 16.3583H59.8736C59.351 16.3583 58.8936 16.0225 58.6976 15.5524L57.979 16.2911C58.371 17.0299 59.155 17.4328 59.9389 17.4328C60.9842 17.5 61.8335 16.6941 61.8989 15.6196V15.4181C61.8335 14.6122 61.5069 14.2092 60.2003 13.672Z" fill="black"/>
<path fill-rule="evenodd" clip-rule="evenodd" d="M56.4111 17.3657H57.5218V11.3886H56.4111V17.3657Z" fill="black"/>
<path fill-rule="evenodd" clip-rule="evenodd" d="M52.8833 11.3886H51.25V17.3658H52.8833C53.6019 17.4329 54.3206 17.1643 54.9085 16.6942C55.5618 16.0897 55.9538 15.2838 55.9538 14.4108C56.0192 12.799 54.7779 11.4558 53.2099 11.3886H52.8833V11.3886Z" fill="#DADADA"/>
<path fill-rule="evenodd" clip-rule="evenodd" d="M54.19 15.8883C53.798 16.2241 53.21 16.4256 52.6874 16.3584H52.3607V12.3961H52.6874C53.21 12.3289 53.798 12.5304 54.19 12.8662C54.582 13.2691 54.778 13.8064 54.778 14.3437C54.778 14.9481 54.582 15.4854 54.19 15.8883Z" fill="#DADADA"/>
<path fill-rule="evenodd" clip-rule="evenodd" d="M69.9347 11.25C68.3014 11.25 66.9294 12.5932 66.9294 14.3393C66.9294 16.0183 68.2361 17.4286 69.9347 17.4958C71.6333 17.5629 72.9399 16.1526 73.0052 14.4065C72.9399 12.6603 71.6333 11.25 69.9347 11.25V11.25Z" fill="#FD6020"/>
<rect x="0.5" y="0.5" width="41.5" height="29" rx="3.5" fill="white" stroke="#B2BCCA"/>
<path fill-rule="evenodd" clip-rule="evenodd" d="M13.4378 19.8228H10.8631L8.93244 12.2404C8.84081 11.8916 8.64623 11.5833 8.36002 11.4379C7.64573 11.0727 6.85864 10.7821 6 10.6355V10.3436H10.1476C10.72 10.3436 11.1494 10.7821 11.2209 11.2914L12.2227 16.7608L14.7961 10.3436H17.2992L13.4378 19.8228Z" fill="#172B85"/>
<path fill-rule="evenodd" clip-rule="evenodd" d="M18.7304 19.8228H16.2988L18.3011 10.3436H20.7326L18.7304 19.8228Z" fill="#172B85"/>
<path fill-rule="evenodd" clip-rule="evenodd" d="M23.8784 12.9696C23.9499 12.4591 24.3793 12.1672 24.8801 12.1672C25.6672 12.0939 26.5246 12.2405 27.2402 12.6044L27.6695 10.5635C26.9539 10.2716 26.1669 10.125 25.4526 10.125C23.0926 10.125 21.3753 11.438 21.3753 13.2603C21.3753 14.6466 22.5917 15.3745 23.4503 15.813C24.3793 16.2503 24.737 16.5422 24.6655 16.9794C24.6655 17.6353 23.9499 17.9272 23.2357 17.9272C22.377 17.9272 21.5184 17.7086 20.7325 17.3434L20.3032 19.3856C21.1619 19.7495 22.0908 19.8961 22.9495 19.8961C25.5957 19.9681 27.2402 18.6564 27.2402 16.6875C27.2402 14.2081 23.8784 14.0627 23.8784 12.9696Z" fill="#172B85"/>
<path fill-rule="evenodd" clip-rule="evenodd" d="M35.7499 19.8228L33.8192 10.3436H31.7454C31.3161 10.3436 30.8867 10.6355 30.7436 11.0727L27.1685 19.8228H29.6716L30.1712 18.4377H33.2468L33.533 19.8228H35.7499Z" fill="#172B85"/>
<path fill-rule="evenodd" clip-rule="evenodd" d="M32.1034 12.8962L32.8177 16.4688H30.8154L32.1034 12.8962Z" fill="#172B85"/>
<rect x="95.5" y="0.5" width="41.5" height="29" rx="3.5" fill="white" stroke="#B2BCCA"/>
<ellipse cx="110.786" cy="14.6323" rx="8.28601" ry="8.3822" fill="#DADADA"/>
<ellipse cx="121.536" cy="14.6323" rx="8.28601" ry="8.3822" fill="#458FB1"/>
</svg>
