<svg width="132" height="28" viewBox="0 0 132 28" fill="none" xmlns="http://www.w3.org/2000/svg">
<path d="M37.5253 25.3561H33.1188V15.9217C33.1188 13.5908 32.2519 12.4253 30.5182 12.4253C29.2853 12.4253 28.3943 12.8443 27.8453 13.6823C27.2963 14.5203 27.0218 15.8784 27.0218 17.7566V19.9004C25.9317 17.6907 24.4342 15.7082 22.6152 14.058V2.87537H27.0218V7.45531C27.0218 7.81169 26.9881 8.64966 26.9207 9.96922L26.8195 11.2695H27.0507C28.0331 9.6899 29.5935 8.90009 31.7318 8.90009C33.6293 8.90009 35.0692 9.41058 36.0517 10.4316C37.0341 11.4525 37.5253 12.9166 37.5253 14.8237V25.3561Z" fill="#28356A"/>
<path fill-rule="evenodd" clip-rule="evenodd" d="M47.8314 25.6451C45.2308 25.6451 43.1985 24.9275 41.7345 23.4923C40.2704 22.0572 39.5384 20.0249 39.5384 17.3954C39.5384 14.6888 40.2126 12.5987 41.5611 11.125C42.9192 9.64174 44.7926 8.90009 47.1813 8.90009C49.464 8.90009 51.2411 9.55024 52.5125 10.8505C53.7839 12.1508 54.4196 13.9472 54.4196 16.2396V18.3778H44.0028C44.0509 19.63 44.4217 20.6076 45.1152 21.3107C45.8087 22.0138 46.7815 22.3654 48.0337 22.3654C49.0065 22.3654 49.9263 22.2643 50.7932 22.062C51.6601 21.8597 52.5655 21.5371 53.5094 21.094V24.5037C52.7388 24.889 51.9153 25.1731 51.0388 25.3561C50.1623 25.5487 49.0932 25.6451 47.8314 25.6451ZM47.2102 12.0353C46.2759 12.0353 45.5438 12.3338 45.0141 12.931C44.4843 13.5186 44.1809 14.3565 44.1039 15.4449H50.2875C50.2683 14.3565 49.9841 13.5186 49.4351 12.931C48.8861 12.3338 48.1444 12.0353 47.2102 12.0353Z" fill="#28356A"/>
<path d="M55.4791 17.3665C55.4791 22.8855 57.993 25.6451 63.0208 25.6451C64.1285 25.6451 65.0435 25.5584 65.7659 25.385C66.4979 25.2116 67.2203 24.8986 67.9331 24.4459V20.675C67.2107 21.1566 66.4883 21.513 65.7659 21.7442C65.0435 21.9657 64.2585 22.0765 63.4109 22.0765C61.1185 22.0765 59.9724 20.4968 59.9724 17.3376C59.9724 14.082 61.1185 12.4542 63.4109 12.4542C64.0081 12.4542 64.6053 12.5457 65.2024 12.7287C65.7996 12.9021 66.445 13.1285 67.1385 13.4078L68.4388 9.99812C66.9554 9.2661 65.2795 8.90009 63.4109 8.90009C60.8585 8.90009 58.8984 9.62729 57.5307 11.0817C56.163 12.5265 55.4791 14.6214 55.4791 17.3665Z" fill="#28356A"/>
<path d="M74.3816 16.5719L76.3032 14.1157L80.8253 9.20349H85.7953L79.3805 16.2107L86.1854 25.3561H81.0998L76.4476 18.8113L74.555 20.3283V25.3561H70.1484V2.87537H74.555V12.9021L74.3238 16.5719H74.3816Z" fill="#28356A"/>
<path fill-rule="evenodd" clip-rule="evenodd" d="M99.5544 23.4201C100.941 21.9368 101.635 19.8804 101.635 17.2509C101.635 15.5557 101.317 14.0772 100.681 12.8154C100.046 11.5537 99.1355 10.5857 97.9507 9.91143C96.766 9.2372 95.3983 8.90009 93.8476 8.90009C91.3529 8.90009 89.4169 9.63211 88.0396 11.0961C86.6622 12.5602 85.9735 14.6118 85.9735 17.2509C85.9735 18.9461 86.2914 20.4294 86.9271 21.7008C87.5628 22.9722 88.473 23.9499 89.6577 24.6337C90.8424 25.3079 92.2102 25.6451 93.7609 25.6451C96.2363 25.6451 98.1674 24.9034 99.5544 23.4201ZM91.247 20.8773C90.7269 20.0586 90.4668 18.8498 90.4668 17.2509C90.4668 15.6424 90.7269 14.4432 91.247 13.6534C91.7671 12.854 92.6147 12.4542 93.7898 12.4542C94.9745 12.4542 95.8269 12.854 96.347 13.6534C96.8671 14.4528 97.1272 15.652 97.1272 17.2509C97.1272 18.8594 96.8671 20.073 96.347 20.8917C95.8365 21.7008 94.9938 22.1054 93.8187 22.1054C92.6339 22.1054 91.7767 21.696 91.247 20.8773Z" fill="#28356A"/>
<path d="M115.177 25.3561L114.585 23.2901H114.354C113.882 24.0414 113.212 24.6241 112.346 25.0382C111.479 25.4428 110.491 25.6451 109.384 25.6451C107.486 25.6451 106.056 25.1394 105.093 24.128C104.13 23.1071 103.648 21.643 103.648 19.7359V9.20349H108.055V18.6379C108.055 19.8033 108.262 20.6798 108.676 21.2674C109.09 21.8453 109.75 22.1342 110.655 22.1342C111.888 22.1342 112.779 21.7249 113.328 20.9062C113.877 20.0778 114.152 18.7101 114.152 16.803V9.20349H118.558V25.3561H115.177Z" fill="#28356A"/>
<path d="M131.219 21.6286C130.14 21.9657 129.216 22.1342 128.445 22.1342C127.867 22.1342 127.4 21.985 127.044 21.6864C126.697 21.3878 126.524 20.9254 126.524 20.2994V12.512H131.046V9.20349H126.524V5.76492H123.706L122.435 9.17459L120.008 10.6483V12.512H122.117V20.2994C122.117 22.0813 122.517 23.4201 123.316 24.3159C124.125 25.202 125.411 25.6451 127.174 25.6451C128.773 25.6451 130.121 25.3994 131.219 24.9082V21.6286Z" fill="#28356A"/>
<path d="M1.8457 8.04681C-0.0305985 11.801 -0.0305991 16.2194 1.8457 19.9736C4.10483 24.4937 8.72425 27.3492 13.7775 27.3492H18.8653L9.86084 14.2428C9.76453 14.1026 9.76453 13.9176 9.86084 13.7774L18.8653 0.671143L13.7775 0.671143C8.72425 0.671142 4.10483 3.52664 1.8457 8.04681Z" fill="url(#paint0_linear_0_1)"/>
<path d="M6.57178 19.9736C4.69548 16.2194 4.69548 11.8011 6.57178 8.04687C8.8309 3.5267 13.4503 0.671204 18.5036 0.671204H23.5914L19.7216 11.9144C18.1298 10.9313 16.3789 10.1663 14.5056 9.66436L13.1023 9.28834L14.2321 14.814C15.3704 20.3813 19.5569 24.8274 25.0458 26.2982L28.9004 27.331L28.914 27.3493H18.5036C13.4503 27.3493 8.8309 24.4938 6.57178 19.9736Z" fill="url(#paint1_linear_0_1)"/>
<path d="M13.8158 15.0388C14.9663 20.5868 19.1457 25.0146 24.621 26.4817L26.5897 27.0092L23.3019 27.3145C17.5523 27.8486 12.0284 25.0328 9.09836 20.0743L6.39746 15.5036C8.88618 14.7915 11.4094 14.6618 13.8158 15.0388Z" fill="#F9A000"/>
<path d="M13.7642 12.1312C15.7626 19.5085 21.5399 25.3176 28.9861 27.3181L28.9998 27.3662H25.5055C19.4851 27.3662 14.0481 23.7668 11.6968 18.2245L8.86279 11.5444C10.5425 11.5444 12.1852 11.7467 13.7642 12.1312Z" fill="#FD6020"/>
<defs>
<linearGradient id="paint0_linear_0_1" x1="12.6323" y1="27.3493" x2="23.4707" y2="0.671135" gradientUnits="userSpaceOnUse">
<stop stop-color="#28356A"/>
<stop offset="1" stop-color="#0C7CFF"/>
</linearGradient>
<linearGradient id="paint1_linear_0_1" x1="11.793" y1="3.75697" x2="23.6074" y2="15.1428" gradientUnits="userSpaceOnUse">
<stop stop-color="#2F88FF"/>
<stop offset="1" stop-color="#1D68CD"/>
</linearGradient>
</defs>
</svg>
