<svg width="76" height="30" viewBox="0 0 76 30" fill="none" xmlns="http://www.w3.org/2000/svg">
<path d="M62.2036 15.7947C61.0092 15.7947 60.0342 14.8197 60.0342 13.6253C60.0342 12.4188 61.0092 11.456 62.2036 11.456C63.3979 11.456 64.3729 12.431 64.3729 13.6253C64.3851 14.8197 63.4101 15.7947 62.2036 15.7947ZM62.2036 9.38416C59.8636 9.38416 57.9624 11.2854 57.9624 13.6253C57.9624 15.9653 59.8636 17.8665 62.2036 17.8665C64.5435 17.8665 66.4447 15.9653 66.4447 13.6253C66.4447 11.2732 64.5435 9.38416 62.2036 9.38416Z" fill="black"/>
<path d="M42.7285 15.7947C41.5341 15.7947 40.5591 14.8197 40.5591 13.6253C40.5591 12.4188 41.5341 11.456 42.7285 11.456C43.9228 11.456 44.8978 12.431 44.8978 13.6253C44.8978 14.8197 43.9228 15.7947 42.7285 15.7947ZM42.7285 9.38416C40.3885 9.38416 38.4873 11.2854 38.4873 13.6253C38.4873 15.9653 40.3885 17.8665 42.7285 17.8665C45.0684 17.8665 46.9697 15.9653 46.9697 13.6253C46.9575 11.2732 45.0684 9.38416 42.7285 9.38416Z" fill="black"/>
<path d="M57.6946 15.9166C57.4265 15.9898 57.0121 16.0751 56.8659 16.0751C56.1346 16.0751 55.9884 15.8191 55.9884 15.1367V11.2124H57.719V9.57926H55.9884V7.26367H54.0384L53.624 9.57926H52.2712H52.1616C51.0525 9.57926 50.2116 10.2617 49.6754 11.322L49.0051 9.57926H47.6035V17.7082H49.9922V14.1739C49.9922 12.3945 51.0525 11.2489 52.2956 11.2124H53.5997V15.2585C53.5997 17.1598 54.5746 17.8666 56.159 17.8666C56.9755 17.8666 57.6093 17.696 57.9871 17.5741L57.6946 15.9166Z" fill="black"/>
<path d="M69.3454 12.1385V17.7081H67.0176V9.56702H68.4313L68.9066 10.8101" fill="black"/>
<path d="M68.895 10.8223C69.6019 10.0057 70.5647 9.38416 71.6981 9.38416C73.6359 9.38416 74.4281 10.9319 74.4281 12.3579V17.7081H72.0393V12.431C72.0393 11.7363 71.4544 11.3585 70.8328 11.3585C70.1625 11.3585 69.7359 11.7485 69.3581 12.1507" fill="black"/>
<path d="M29.2124 6.62982H31.8814L35.5376 13.5888V6.62982H37.7435V17.7081H35.3304L31.4183 10.0423V17.7081H29.2124V6.62982Z" fill="black"/>
<path d="M74.4282 9.57922V9.73766H74.6476V10.5055H74.8304V9.73766H75.062V9.57922H74.4282Z" fill="black"/>
<path d="M75.7564 9.57922L75.598 10.1886L75.4273 9.57922H75.1836V10.5055H75.342V9.77422L75.537 10.5055H75.6589L75.8539 9.77422V10.5055H76.0001V9.57922H75.7564Z" fill="black"/>
<path d="M12.6992 7.94608C10.3836 7.94608 8.20204 8.84794 6.55676 10.4932C4.91148 12.1385 4.00962 14.32 4.00962 16.6356C4.00962 18.9512 4.91148 21.1327 6.55676 22.778C8.20204 24.4233 10.3836 25.3251 12.6992 25.3251C15.0147 25.3251 17.1963 24.4233 18.8415 22.778C20.4746 21.1327 21.3765 18.9512 21.3887 16.6356C21.3887 14.32 20.4868 12.1385 18.8415 10.4932C17.1963 8.86013 15.0147 7.94608 12.6992 7.94608ZM12.6992 29.3348C5.70365 29.3348 0 23.6311 0 16.6356C0 9.62792 5.70365 3.93646 12.6992 3.93646C19.6947 3.93646 25.3983 9.62792 25.3983 16.6356C25.3983 23.6311 19.6947 29.3348 12.6992 29.3348Z" fill="#FFC20E"/>
<path d="M27.5189 1.97443H26.5317V2.9616H27.5189V1.97443Z" fill="#FFC20E"/>
<path d="M27.5189 0H26.5317V0.98717H27.5189V0Z" fill="#FFC20E"/>
<path d="M24.6797 2.96149H23.7534V3.92428H24.6797V2.96149Z" fill="white"/>
<path d="M22.851 4.86273H21.9126V5.78896H22.851V4.86273Z" fill="black"/>
<path d="M25.7029 3.92438H24.667V4.85061H25.7029V3.92438Z" fill="black"/>
<path d="M21.9131 3.97314H20.9868V4.86281H21.9131V3.97314Z" fill="black"/>
<path d="M24.6797 4.86273H23.7534V5.78896H24.6797V4.86273Z" fill="black"/>
<path d="M26.5321 0.99939H25.5571V1.98657H26.5321V0.99939Z" fill="black"/>
<path d="M25.5571 1.97443H23.7534V2.9616H25.5571V1.97443Z" fill="black"/>
<path d="M23.7529 2.96149H22.8511V4.8627H23.7529V2.96149Z" fill="black"/>
<path d="M22.8515 5.78894V6.71517H21.9131V5.78894H20.3653V6.45924H19.5365V7.28797H20.4628V8.21421H19.5365V7.28797H18.5494V8.73826H17.6231V9.6645H17.0016V10.5907H16.3191C15.5513 11.7241 13.6501 15.2585 13.0651 16.6966C10.9811 13.796 9.36016 12.6504 8.09268 12.236C7.41019 12.0288 6.58145 12.7723 7.71487 13.9544C10.3351 16.8428 11.1639 19.2193 11.956 21.1327C12.3826 22.1321 14.2716 22.2905 14.6494 21.2668C15.4538 19.1096 16.6238 16.6722 18.0131 14.6857V13.6497H18.7566V12.7235H19.5365V11.6388H20.4628V10.6029H19.5244V9.65231H20.4628V10.6029H21.3768V9.6645H22.1081V8.53108H22.9368V7.75109H23.729V5.78894H22.8515Z" fill="black"/>
<path d="M31.8795 25.9128C31.8795 26.2512 31.7567 26.5151 31.5112 26.7045C31.2657 26.8939 30.9325 26.9886 30.5117 26.9886C30.0557 26.9886 29.705 26.9299 29.4595 26.8124V26.381C29.6173 26.4476 29.7892 26.5002 29.975 26.5388C30.1609 26.5774 30.3451 26.5967 30.5274 26.5967C30.8256 26.5967 31.05 26.5406 31.2008 26.4283C31.3517 26.3144 31.4271 26.1565 31.4271 25.9549C31.4271 25.8216 31.3999 25.7129 31.3455 25.6287C31.2929 25.5428 31.2035 25.4638 31.0772 25.3919C30.9527 25.32 30.7624 25.2385 30.5064 25.1473C30.1487 25.0193 29.8926 24.8676 29.7383 24.6922C29.5857 24.5169 29.5095 24.288 29.5095 24.0057C29.5095 23.7093 29.6208 23.4735 29.8435 23.2981C30.0662 23.1227 30.3608 23.035 30.7274 23.035C31.1097 23.035 31.4613 23.1052 31.7822 23.2455L31.6428 23.6348C31.3253 23.5015 31.0167 23.4349 30.7168 23.4349C30.4801 23.4349 30.2951 23.4857 30.1618 23.5874C30.0285 23.6892 29.9619 23.8303 29.9619 24.0109C29.9619 24.1442 29.9864 24.2538 30.0355 24.3398C30.0846 24.4239 30.1671 24.502 30.2828 24.5739C30.4003 24.644 30.5792 24.722 30.8194 24.808C31.2228 24.9518 31.4998 25.1061 31.6507 25.2709C31.8032 25.4358 31.8795 25.6497 31.8795 25.9128Z" fill="black"/>
<path d="M33.8182 26.9886C33.392 26.9886 33.0553 26.8589 32.8081 26.5993C32.5625 26.3398 32.4398 25.9794 32.4398 25.5182C32.4398 25.0535 32.5538 24.6843 32.7818 24.4108C33.0115 24.1372 33.3192 24.0004 33.705 24.0004C34.0663 24.0004 34.3521 24.1197 34.5626 24.3582C34.773 24.5949 34.8782 24.9079 34.8782 25.2972V25.5734H32.8922C32.901 25.9119 32.9861 26.1688 33.1474 26.3442C33.3105 26.5195 33.5393 26.6072 33.8339 26.6072C34.1443 26.6072 34.4512 26.5423 34.7546 26.4126V26.8019C34.6003 26.8685 34.4539 26.9159 34.3153 26.9439C34.1785 26.9737 34.0128 26.9886 33.8182 26.9886ZM33.6998 24.3661C33.4683 24.3661 33.2833 24.4415 33.1448 24.5923C33.008 24.7431 32.9273 24.9518 32.9028 25.2183H34.41C34.41 24.943 34.3486 24.7326 34.2259 24.587C34.1031 24.4397 33.9278 24.3661 33.6998 24.3661Z" fill="black"/>
<path d="M36.7774 26.9886C36.3601 26.9886 36.0365 26.8606 35.8068 26.6046C35.5788 26.3468 35.4648 25.9829 35.4648 25.5129C35.4648 25.0307 35.5806 24.658 35.812 24.395C36.0453 24.1319 36.3767 24.0004 36.8064 24.0004C36.9449 24.0004 37.0834 24.0153 37.222 24.0451C37.3605 24.075 37.4692 24.11 37.5482 24.1504L37.414 24.5213C37.3176 24.4827 37.2123 24.4511 37.0983 24.4266C36.9844 24.4003 36.8835 24.3871 36.7958 24.3871C36.2101 24.3871 35.9173 24.7606 35.9173 25.5077C35.9173 25.8619 35.9883 26.1337 36.1303 26.3231C36.2741 26.5125 36.4863 26.6072 36.7669 26.6072C37.0072 26.6072 37.2535 26.5555 37.5061 26.452V26.8387C37.3132 26.9387 37.0703 26.9886 36.7774 26.9886Z" fill="black"/>
<path d="M38.603 24.053V25.9233C38.603 26.1583 38.6565 26.3336 38.7634 26.4494C38.8704 26.5651 39.0379 26.623 39.2658 26.623C39.5675 26.623 39.7876 26.5406 39.9261 26.3757C40.0664 26.2109 40.1365 25.9417 40.1365 25.5682V24.053H40.5732V26.936H40.2128L40.1497 26.5493H40.126C40.0366 26.6914 39.9121 26.8001 39.7525 26.8755C39.5947 26.9509 39.414 26.9886 39.2106 26.9886C38.8599 26.9886 38.5968 26.9053 38.4215 26.7387C38.2479 26.5721 38.1611 26.3056 38.1611 25.9391V24.053H38.603Z" fill="black"/>
<path d="M42.817 24.0004C42.945 24.0004 43.0599 24.0109 43.1616 24.032L43.1011 24.4371C42.9818 24.4108 42.8766 24.3976 42.7854 24.3976C42.5522 24.3976 42.3523 24.4923 42.1857 24.6817C42.0208 24.8711 41.9384 25.107 41.9384 25.3893V26.936H41.5017V24.053H41.8621L41.9121 24.587H41.9331C42.0401 24.3994 42.169 24.2547 42.3198 24.153C42.4706 24.0513 42.6364 24.0004 42.817 24.0004Z" fill="black"/>
<path d="M44.1375 26.936H43.7008V24.053H44.1375V26.936ZM43.664 23.2718C43.664 23.1718 43.6885 23.099 43.7376 23.0535C43.7867 23.0061 43.8481 22.9824 43.9218 22.9824C43.9919 22.9824 44.0524 23.0061 44.1033 23.0535C44.1541 23.1008 44.1796 23.1736 44.1796 23.2718C44.1796 23.37 44.1541 23.4436 44.1033 23.4927C44.0524 23.5401 43.9919 23.5638 43.9218 23.5638C43.8481 23.5638 43.7867 23.5401 43.7376 23.4927C43.6885 23.4436 43.664 23.37 43.664 23.2718Z" fill="black"/>
<path d="M45.9946 26.6283C46.0717 26.6283 46.1463 26.623 46.2182 26.6125C46.2901 26.6002 46.3471 26.5879 46.3892 26.5756V26.9097C46.3418 26.9325 46.2717 26.9509 46.1787 26.965C46.0875 26.9807 46.0051 26.9886 45.9314 26.9886C45.3738 26.9886 45.095 26.6949 45.095 26.1074V24.3924H44.682V24.1819L45.095 24.0004L45.2791 23.3849H45.5316V24.053H46.3681V24.3924H45.5316V26.089C45.5316 26.2626 45.5728 26.3959 45.6553 26.4888C45.7377 26.5818 45.8508 26.6283 45.9946 26.6283Z" fill="black"/>
<path d="M46.5102 24.053H46.9784L47.6097 25.6971C47.7482 26.0724 47.8342 26.3433 47.8675 26.5099H47.8885C47.9113 26.4205 47.9587 26.2679 48.0306 26.0522C48.1042 25.8347 48.3427 25.1683 48.746 24.053H49.2143L47.9753 27.3359C47.8526 27.6603 47.7088 27.89 47.5439 28.025C47.3808 28.1618 47.18 28.2302 46.9415 28.2302C46.8083 28.2302 46.6767 28.2153 46.547 28.1855V27.8356C46.6434 27.8567 46.7513 27.8672 46.8705 27.8672C47.1704 27.8672 47.3843 27.6989 47.5124 27.3622L47.6728 26.9518L46.5102 24.053Z" fill="black"/>
<path d="M52.7943 23.4349C52.3717 23.4349 52.0376 23.576 51.7921 23.8584C51.5484 24.139 51.4265 24.5239 51.4265 25.0132C51.4265 25.5164 51.544 25.9058 51.779 26.1811C52.0157 26.4546 52.3524 26.5914 52.7891 26.5914C53.0574 26.5914 53.3634 26.5432 53.7071 26.4468V26.8387C53.4406 26.9387 53.1117 26.9886 52.7207 26.9886C52.1543 26.9886 51.7167 26.8168 51.4081 26.4731C51.1012 26.1293 50.9477 25.641 50.9477 25.0079C50.9477 24.6116 51.0214 24.2643 51.1687 23.9662C51.3178 23.6681 51.5317 23.4384 51.8105 23.277C52.0911 23.1157 52.4208 23.035 52.7996 23.035C53.2029 23.035 53.5554 23.1087 53.857 23.256L53.6676 23.64C53.3765 23.5033 53.0854 23.4349 52.7943 23.4349Z" fill="black"/>
<path d="M56.4533 26.936V25.071C56.4533 24.836 56.3998 24.6607 56.2929 24.5449C56.1859 24.4292 56.0184 24.3713 55.7904 24.3713C55.4871 24.3713 55.2652 24.4537 55.1249 24.6186C54.9864 24.7834 54.9171 25.0535 54.9171 25.4288V26.936H54.4805V22.843H54.9171V24.082C54.9171 24.231 54.9101 24.3547 54.8961 24.4529H54.9224C55.0083 24.3143 55.1302 24.2056 55.288 24.1267C55.4476 24.046 55.6291 24.0057 55.8325 24.0057C56.185 24.0057 56.4489 24.0899 56.6243 24.2582C56.8014 24.4248 56.89 24.6905 56.89 25.0552V26.936H56.4533Z" fill="black"/>
<path d="M59.0075 26.9886C58.5814 26.9886 58.2447 26.8589 57.9974 26.5993C57.7519 26.3398 57.6291 25.9794 57.6291 25.5182C57.6291 25.0535 57.7431 24.6843 57.9711 24.4108C58.2008 24.1372 58.5086 24.0004 58.8944 24.0004C59.2556 24.0004 59.5415 24.1197 59.7519 24.3582C59.9624 24.5949 60.0676 24.9079 60.0676 25.2972V25.5734H58.0816C58.0903 25.9119 58.1754 26.1688 58.3367 26.3442C58.4998 26.5195 58.7287 26.6072 59.0233 26.6072C59.3337 26.6072 59.6406 26.5423 59.9439 26.4126V26.8019C59.7896 26.8685 59.6432 26.9159 59.5047 26.9439C59.3679 26.9737 59.2021 26.9886 59.0075 26.9886ZM58.8891 24.3661C58.6576 24.3661 58.4726 24.4415 58.3341 24.5923C58.1973 24.7431 58.1166 24.9518 58.0921 25.2183H59.5993C59.5993 24.943 59.538 24.7326 59.4152 24.587C59.2925 24.4397 59.1171 24.3661 58.8891 24.3661Z" fill="black"/>
<path d="M61.9668 26.9886C61.5494 26.9886 61.2259 26.8606 60.9961 26.6046C60.7682 26.3468 60.6542 25.9829 60.6542 25.5129C60.6542 25.0307 60.7699 24.658 61.0014 24.395C61.2346 24.1319 61.5661 24.0004 61.9957 24.0004C62.1342 24.0004 62.2728 24.0153 62.4113 24.0451C62.5499 24.075 62.6586 24.11 62.7375 24.1504L62.6033 24.5213C62.5069 24.4827 62.4017 24.4511 62.2877 24.4266C62.1737 24.4003 62.0729 24.3871 61.9852 24.3871C61.3995 24.3871 61.1066 24.7606 61.1066 25.5077C61.1066 25.8619 61.1776 26.1337 61.3197 26.3231C61.4635 26.5125 61.6757 26.6072 61.9562 26.6072C62.1965 26.6072 62.4429 26.5555 62.6954 26.452V26.8387C62.5025 26.9387 62.2596 26.9886 61.9668 26.9886Z" fill="black"/>
<path d="M63.8134 25.4603C63.8888 25.3534 64.0036 25.2131 64.1579 25.0395L65.0891 24.053H65.6073L64.4394 25.2815L65.6889 26.936H65.1602L64.1422 25.5734L63.8134 25.8575V26.936H63.382V22.843H63.8134V25.0132C63.8134 25.1096 63.8063 25.2587 63.7923 25.4603H63.8134Z" fill="black"/>
<path d="M68.7008 25.4919C68.7008 25.9619 68.5824 26.3293 68.3456 26.5941C68.1089 26.8571 67.7819 26.9886 67.3645 26.9886C67.1067 26.9886 66.8778 26.9281 66.6779 26.8071C66.478 26.6861 66.3237 26.5125 66.215 26.2863C66.1062 26.0601 66.0519 25.7953 66.0519 25.4919C66.0519 25.0219 66.1694 24.6563 66.4044 24.395C66.6394 24.1319 66.9655 24.0004 67.3829 24.0004C67.7862 24.0004 68.1063 24.1346 68.343 24.4029C68.5815 24.6712 68.7008 25.0342 68.7008 25.4919ZM66.5043 25.4919C66.5043 25.8602 66.578 26.1407 66.7253 26.3336C66.8726 26.5265 67.0892 26.623 67.375 26.623C67.6609 26.623 67.8774 26.5274 68.0247 26.3363C68.1738 26.1434 68.2483 25.8619 68.2483 25.4919C68.2483 25.1254 68.1738 24.8474 68.0247 24.658C67.8774 24.4669 67.6591 24.3713 67.3697 24.3713C67.0839 24.3713 66.8682 24.4651 66.7227 24.6528C66.5771 24.8404 66.5043 25.1201 66.5043 25.4919Z" fill="black"/>
<path d="M69.8792 24.053V25.9233C69.8792 26.1583 69.9327 26.3336 70.0397 26.4494C70.1466 26.5651 70.3141 26.623 70.5421 26.623C70.8437 26.623 71.0638 26.5406 71.2023 26.3757C71.3426 26.2109 71.4128 25.9417 71.4128 25.5682V24.053H71.8494V26.936H71.4891L71.4259 26.5493H71.4022C71.3128 26.6914 71.1883 26.8001 71.0287 26.8755C70.8709 26.9509 70.6903 26.9886 70.4868 26.9886C70.1361 26.9886 69.8731 26.9053 69.6977 26.7387C69.5241 26.5721 69.4373 26.3056 69.4373 25.9391V24.053H69.8792Z" fill="black"/>
<path d="M73.7092 26.6283C73.7863 26.6283 73.8609 26.623 73.9328 26.6125C74.0047 26.6002 74.0616 26.5879 74.1037 26.5756V26.9097C74.0564 26.9325 73.9862 26.9509 73.8933 26.965C73.8021 26.9807 73.7197 26.9886 73.646 26.9886C73.0884 26.9886 72.8095 26.6949 72.8095 26.1074V24.3924H72.3966V24.1819L72.8095 24.0004L72.9937 23.3849H73.2462V24.053H74.0827V24.3924H73.2462V26.089C73.2462 26.2626 73.2874 26.3959 73.3698 26.4888C73.4523 26.5818 73.5654 26.6283 73.7092 26.6283Z" fill="black"/>
</svg>
