<svg width="43" height="30" viewBox="0 0 43 30" fill="none" xmlns="http://www.w3.org/2000/svg">
<rect x="0.5" y="0.5" width="41.5" height="29" rx="3.5" fill="white" stroke="#B2BCCA"/>
<path fill-rule="evenodd" clip-rule="evenodd" d="M26.5946 11.3434C26.58 11.441 26.563 11.5407 26.5441 11.6432C25.8915 15.1065 23.6586 16.303 20.8071 16.303H19.3551C19.0064 16.303 18.7124 16.5646 18.6582 16.9202L17.7043 23.1743C17.669 23.4078 17.843 23.6182 18.0709 23.6182H20.6461C20.951 23.6182 21.2101 23.3892 21.2581 23.0784L21.2834 22.9432L21.7682 19.7629L21.7994 19.5885C21.8469 19.2766 22.1065 19.0475 22.4114 19.0475H22.7965C25.2915 19.0475 27.2447 18.0006 27.8156 14.9707C28.0539 13.7051 27.9305 12.6483 27.2995 11.905C27.1086 11.681 26.8717 11.4949 26.5946 11.3434" fill="#2F80ED"/>
<path fill-rule="evenodd" clip-rule="evenodd" d="M25.9115 11.0621C25.8118 11.032 25.7089 11.0049 25.6034 10.9803C25.4973 10.9563 25.3887 10.9351 25.2768 10.9164C24.8853 10.851 24.4563 10.82 23.9969 10.82H20.1181C20.0225 10.82 19.9317 10.8423 19.8506 10.8827C19.6716 10.9716 19.5388 11.1466 19.5066 11.3609L18.6814 16.7628L18.6577 16.9203C18.712 16.5647 19.0059 16.3031 19.3546 16.3031H20.8066C23.6582 16.3031 25.891 15.106 26.5436 11.6433C26.5631 11.5408 26.5795 11.4411 26.5941 11.3435C26.429 11.2529 26.2502 11.1755 26.0577 11.1095C26.0101 11.0931 25.961 11.0774 25.9115 11.0621Z" fill="#28356A"/>
<path fill-rule="evenodd" clip-rule="evenodd" d="M19.5068 11.3609C19.539 11.1466 19.6719 10.9716 19.8508 10.8833C19.9325 10.8428 20.0227 10.8205 20.1183 10.8205H23.9971C24.4566 10.8205 24.8856 10.8517 25.277 10.9171C25.3889 10.9355 25.4975 10.9569 25.6036 10.9809C25.7091 11.0053 25.812 11.0327 25.9117 11.0626C25.9613 11.0779 26.0103 11.0938 26.0583 11.1095C26.2509 11.1755 26.4299 11.2536 26.5949 11.3435C26.7891 10.0637 26.5933 9.19228 25.9239 8.40321C25.1857 7.53441 23.8536 7.16263 22.149 7.16263H17.2001C16.8519 7.16263 16.5549 7.42428 16.5011 7.78048L14.4398 21.285C14.3992 21.5521 14.5986 21.7931 14.8592 21.7931H17.9145L19.5068 11.3609" fill="#28356A"/>
</svg>
